<svg width="15" height="12" viewBox="0 0 15 12" fill="none" xmlns="http://www.w3.org/2000/svg">
<path d="M13.8571 5.91016L5.28571 5.91016M13.8571 1.62444L5.28571 1.62444M13.8571 10.1959L5.28571 10.1959M2.42857 5.91016C2.42857 6.30465 2.10877 6.62444 1.71429 6.62444C1.3198 6.62444 1 6.30465 1 5.91016C1 5.51567 1.3198 5.19587 1.71429 5.19587C2.10877 5.19587 2.42857 5.51567 2.42857 5.91016ZM2.42857 1.62444C2.42857 2.01893 2.10877 2.33873 1.71429 2.33873C1.3198 2.33873 1 2.01893 1 1.62444C1 1.22995 1.3198 0.910156 1.71429 0.910156C2.10877 0.910156 2.42857 1.22995 2.42857 1.62444ZM2.42857 10.1959C2.42857 10.5904 2.10877 10.9102 1.71429 10.9102C1.3198 10.9102 1 10.5904 1 10.1959C1 9.80138 1.3198 9.48158 1.71429 9.48158C2.10877 9.48158 2.42857 9.80138 2.42857 10.1959Z" stroke="#263B3A" stroke-linecap="round" stroke-linejoin="round"/>
</svg>
