<svg width="16" height="17" viewBox="0 0 16 17" fill="none" xmlns="http://www.w3.org/2000/svg">
<path d="M0.46967 14.9697C0.176777 15.2626 0.176777 15.7374 0.46967 16.0303C0.762563 16.3232 1.23744 16.3232 1.53033 16.0303L0.46967 14.9697ZM8.53033 9.03033C8.82322 8.73744 8.82322 8.26256 8.53033 7.96967C8.23744 7.67678 7.76256 7.67678 7.46967 7.96967L8.53033 9.03033ZM7.46967 7.96967C7.17678 8.26256 7.17678 8.73744 7.46967 9.03033C7.76256 9.32322 8.23744 9.32322 8.53033 9.03033L7.46967 7.96967ZM15.5303 2.03033C15.8232 1.73744 15.8232 1.26256 15.5303 0.96967C15.2374 0.676777 14.7626 0.676777 14.4697 0.96967L15.5303 2.03033ZM8.53033 7.96967C8.23744 7.67678 7.76256 7.67678 7.46967 7.96967C7.17678 8.26256 7.17678 8.73744 7.46967 9.03033L8.53033 7.96967ZM14.4697 16.0303C14.7626 16.3232 15.2374 16.3232 15.5303 16.0303C15.8232 15.7374 15.8232 15.2626 15.5303 14.9697L14.4697 16.0303ZM7.46967 9.03033C7.76256 9.32322 8.23744 9.32322 8.53033 9.03033C8.82322 8.73744 8.82322 8.26256 8.53033 7.96967L7.46967 9.03033ZM1.53033 0.96967C1.23744 0.676777 0.762563 0.676777 0.46967 0.96967C0.176777 1.26256 0.176777 1.73744 0.46967 2.03033L1.53033 0.96967ZM1.53033 16.0303L8.53033 9.03033L7.46967 7.96967L0.46967 14.9697L1.53033 16.0303ZM8.53033 9.03033L15.5303 2.03033L14.4697 0.96967L7.46967 7.96967L8.53033 9.03033ZM7.46967 9.03033L14.4697 16.0303L15.5303 14.9697L8.53033 7.96967L7.46967 9.03033ZM8.53033 7.96967L1.53033 0.96967L0.46967 2.03033L7.46967 9.03033L8.53033 7.96967Z" fill="black"/>
</svg>
