<svg width="32" height="33" viewBox="0 0 32 33" fill="none" xmlns="http://www.w3.org/2000/svg">
<path d="M24.0405 14.8021H7.95996M7.95996 13.3549L7.95996 19.4654C7.95996 20.366 7.95996 20.8163 8.13523 21.1603C8.2894 21.4629 8.5354 21.7089 8.83797 21.8631C9.18195 22.0383 9.63225 22.0383 10.5328 22.0383L21.4676 22.0383C22.3682 22.0383 22.8185 22.0383 23.1624 21.8631C23.465 21.7089 23.711 21.4629 23.8652 21.1603C24.0405 20.8163 24.0405 20.366 24.0405 19.4655V13.3549C24.0405 12.4543 24.0405 12.004 23.8652 11.66C23.711 11.3574 23.465 11.1114 23.1624 10.9573C22.8185 10.782 22.3682 10.782 21.4676 10.782L10.5328 10.782C9.63225 10.782 9.18195 10.782 8.83797 10.9572C8.5354 11.1114 8.2894 11.3574 8.13523 11.66C7.95996 12.004 7.95996 12.4543 7.95996 13.3549Z" stroke="#263B3A" stroke-linecap="round" stroke-linejoin="round"/>
<rect x="0.5" y="0.910156" width="31" height="31" rx="15.5" stroke="#263B3A"/>
</svg>
