<svg width="32" height="33" viewBox="0 0 32 33" fill="none" xmlns="http://www.w3.org/2000/svg">
<path d="M18.8151 17.6614H18.8214M10.3701 12.0314V20.7892C10.3701 21.4801 10.9303 22.0403 11.6212 22.0403H20.379C21.07 22.0403 21.6301 21.4801 21.6301 20.7892V14.5336C21.6301 13.8426 21.07 13.2825 20.379 13.2825H19.1279L11.6212 13.2825C10.9303 13.2825 10.3701 12.7224 10.3701 12.0314ZM10.3701 12.0314C10.3701 11.3404 10.9303 10.7803 11.6212 10.7803H19.1279M19.1279 17.6614C19.1279 17.8341 18.9879 17.9742 18.8151 17.9742C18.6424 17.9742 18.5023 17.8341 18.5023 17.6614C18.5023 17.4886 18.6424 17.3486 18.8151 17.3486C18.9879 17.3486 19.1279 17.4886 19.1279 17.6614Z" stroke="#263B3A" stroke-linecap="round" stroke-linejoin="round"/>
<path d="M18.8152 17.6614H18.8215M19.128 17.6614C19.128 17.8342 18.988 17.9742 18.8152 17.9742C18.6425 17.9742 18.5024 17.8342 18.5024 17.6614C18.5024 17.4887 18.6425 17.3486 18.8152 17.3486C18.988 17.3486 19.128 17.4887 19.128 17.6614Z" stroke="#263B3A" stroke-linecap="round" stroke-linejoin="round"/>
<rect x="0.5" y="0.910156" width="31" height="31" rx="15.5" stroke="#263B3A"/>
</svg>
