<svg width="32" height="33" viewBox="0 0 32 33" fill="none" xmlns="http://www.w3.org/2000/svg">
<g clip-path="url(#clip0_29_3032)">
<path d="M27.3659 13.824C27.3018 13.7588 27.2642 13.699 27.2112 13.616C27.1835 13.574 27.1536 13.5286 27.1204 13.4799C27.2122 13.3737 27.2896 13.2509 27.3483 13.1159L27.5827 12.5816L27.0054 12.4986C26.9081 12.4842 26.7511 12.4432 26.5676 12.3946C26.2137 12.3016 25.7592 12.1821 25.2638 12.1301C25.433 12.056 25.5768 11.9221 25.6774 11.7407L25.7725 11.5692C25.7725 11.5692 25.7471 11.3291 25.6541 11.2539C25.6895 11.1797 25.7172 11.0978 25.7359 11.0082L25.8145 10.6254L25.4451 10.4993C25.3876 10.4794 25.3302 10.465 25.2738 10.4562C25.2528 10.3864 25.2218 10.3123 25.1798 10.2338L24.9609 9.83214L24.566 10.0634C24.4677 10.1209 24.3847 10.1873 24.3173 10.2614C24.2586 10.2503 24.1956 10.2448 24.1292 10.2448C24.1292 10.2448 23.9037 10.2194 23.6549 10.3101L23.3364 9.97931L22.9593 9.57654C22.6066 9.19928 22.1288 9.08751 21.6423 9.27342C21.4566 9.08751 21.1668 8.93375 20.7168 8.93375C20.5642 8.93375 20.4304 8.95252 20.3518 8.96251C20.3518 8.96251 19.7326 9.07532 19.3843 9.40616L18.9619 9.20477C18.6788 9.65067 18.1945 9.7923 18.1945 9.7923C18.1612 9.66176 18.1049 9.54005 18.0242 9.42827L18.0518 9.27116C18.0518 9.26678 18.1469 8.73456 18.4366 8.28317L18.9409 7.49761L18.2265 7.57838C18.2287 7.50754 18.2254 7.42347 18.2155 7.32388L18.1513 6.71314L17.5918 6.96655C17.5298 6.9942 17.4779 7.02186 17.4293 7.04732L17.3186 6.81164L17.0621 6.94443C17.0366 6.88132 17.0035 6.80944 16.9582 6.72641L16.6629 6.18433L16.2438 6.63681C16.2007 6.68329 16.1642 6.72642 16.1332 6.76735L15.8789 6.514L15.6223 6.76851C15.5903 6.72757 15.5549 6.68439 15.5117 6.63791L15.0882 6.18433L14.7919 6.72867C14.7466 6.81164 14.7145 6.88242 14.6891 6.94553L14.4336 6.81274L14.323 7.04842C14.2744 7.02295 14.2224 6.9953 14.1605 6.96655L13.5988 6.71429L13.5368 7.32722C13.5269 7.42567 13.5235 7.5087 13.5258 7.57948L12.8103 7.49871L13.3157 8.28427C13.6065 8.73456 13.6994 9.26678 13.6994 9.27116L13.7259 9.42827C13.6452 9.54114 13.5877 9.66285 13.5556 9.7934C13.5556 9.7934 13.0979 9.59755 12.7915 9.20477L12.3602 9.4106C11.8681 9.07867 11.5629 8.94922 11.0322 8.93375C10.5821 8.92157 10.2924 9.08751 10.1066 9.27342C9.61897 9.0886 9.14233 9.20038 8.79072 9.57763C8.79072 9.57763 8.55961 9.82879 8.41365 9.98041C8.26768 10.1331 8.05204 10.2592 8.05204 10.2592C8.05204 10.2592 7.74574 10.1906 7.43056 10.2625C7.36312 10.1884 7.27911 10.122 7.17958 10.0634L6.78367 9.83214L6.56584 10.2359C6.5238 10.3134 6.49395 10.3864 6.47409 10.4562C6.41768 10.465 6.36018 10.4794 6.30267 10.4993L5.93552 10.6277L6.01185 11.0082C6.03062 11.1001 6.05717 11.182 6.09366 11.2561C6.07265 11.2971 6.05388 11.3402 6.03841 11.3856L5.97646 11.5703L6.07045 11.7418C6.16999 11.9221 6.3126 12.0571 6.48292 12.1312C5.98639 12.1832 5.53304 12.3028 5.17807 12.3956C4.99562 12.4432 4.83858 12.4853 4.74129 12.4997L4.16185 12.5838L4.29343 12.8825L4.39851 13.1203C4.45821 13.2532 4.53673 13.3759 4.62738 13.4822C4.59308 13.5309 4.44712 13.7599 4.38188 13.8252L4.08887 14.1228L4.36976 14.4326C4.40509 14.4702 4.72027 14.801 5.23004 14.8021C5.36935 14.8021 5.50758 14.7778 5.6447 14.7291C5.78073 14.9415 5.94216 15.1573 6.08927 15.2635C5.81832 15.5821 5.50983 15.8587 5.0708 16.0678L4.70371 16.2427L4.86179 16.662C4.96468 16.9154 5.16479 17.1931 5.5518 17.2993C5.46889 17.5471 5.42911 17.7817 5.39372 17.9908C5.31075 18.4876 5.27536 18.6933 4.83858 18.8471L4.44603 18.9844L4.55884 19.3849C4.64949 19.7112 4.78552 19.927 4.93257 20.0697L4.6716 20.3574C4.6716 20.3574 5.29089 20.822 5.89793 20.8785C5.90677 20.8796 6.42432 20.9128 6.65654 20.6163C6.74944 20.9526 6.89649 21.2624 7.03027 21.5435C7.30452 22.121 7.45048 22.4629 7.26693 22.7749L6.85227 23.4786L7.66722 23.4443C8.02328 23.4299 8.35394 23.4077 8.64032 23.337C8.64032 23.3524 8.63923 23.3668 8.63814 23.3812L8.57176 23.9853L9.2861 23.8348C9.36132 23.8127 9.43205 23.7828 9.4962 23.7485C9.93855 24.2664 10.6905 24.6701 11.7034 24.6701H11.762L10.5976 25.1481L11.4457 25.5896C12.0042 25.8805 12.6245 26.1239 13.3322 26.3309L13.2338 26.6705L13.6596 26.7956C13.9051 26.8675 14.793 27.1031 15.8745 27.1031C16.9559 27.1031 17.8428 26.8675 18.0894 26.7956L18.514 26.6705L18.4156 26.332C19.1244 26.1251 19.7448 25.8816 20.3032 25.5907L21.1514 25.1493L19.9858 24.6713H20.0444C21.0574 24.6713 21.8082 24.2674 22.2505 23.7496C22.3146 23.784 22.3854 23.8138 22.4606 23.8359L23.1749 23.9864L23.1097 23.3834C23.1086 23.369 23.1075 23.3535 23.1075 23.338C23.3928 23.4088 23.7245 23.4299 24.0795 23.4454L24.8944 23.4797L24.482 22.7771C24.2973 22.4651 24.4444 22.1232 24.7175 21.5457C24.8514 21.2646 24.9984 20.9548 25.0913 20.6185C25.2483 20.738 25.4175 20.8099 25.5856 20.8475C25.5856 20.8475 25.7161 20.8863 25.8411 20.8895C26.2016 20.9006 26.3817 20.7978 26.6295 20.6417L27.0795 20.3585L26.8163 20.0708C26.9634 19.9292 27.0994 19.7134 27.1901 19.3881L27.304 18.9865L26.9103 18.8493C26.4725 18.6956 26.4382 18.4898 26.3552 17.993C26.3198 17.7839 26.2812 17.5482 26.1971 17.3015C26.5841 17.1942 26.7832 16.9165 26.886 16.6642L27.0431 16.2437L26.6759 16.0689C26.2369 15.8599 25.9284 15.5832 25.6563 15.2646C25.8045 15.1584 25.966 14.9426 26.1031 14.7302C26.2391 14.7789 26.3774 14.8021 26.5178 14.8032C27.0275 14.8032 27.3438 14.4724 27.3781 14.4348L27.659 14.125L27.3659 13.824Z" fill="white"/>
<path fill-rule="evenodd" clip-rule="evenodd" d="M12.2806 19.2764V15.9019C12.2806 15.5876 12.1899 15.2734 12.0815 14.9846H14.699C14.939 15.3144 15.3746 15.5357 15.8745 15.5357C16.3721 15.5357 16.8078 15.3144 17.0488 14.9846H19.6663C19.5557 15.2745 19.4661 15.5876 19.4661 15.9019V19.2764H12.2806ZM15.8734 23.8879C15.5074 23.5239 15.2464 23.4841 14.26 23.4841C13.0812 23.4841 12.2806 22.7925 12.2806 21.6873V19.4744H19.465V21.6873C19.465 22.7925 18.6655 23.4841 17.4845 23.4841C16.4992 23.4829 16.2383 23.5239 15.8734 23.8879Z" fill="#FFDD2D"/>
<path d="M12.6977 24.3049V24.9787L12.1128 25.2144C12.6071 25.439 13.2208 25.6625 13.9418 25.8273L14.2735 24.7464C13.5658 24.6015 13.0726 24.4499 12.6977 24.3049Z" fill="white"/>
<path d="M15.8736 25.2178C15.1825 25.2178 14.6009 25.1459 14.3686 25.0928L14.0181 26.2268C14.5688 26.3618 15.2134 26.4614 15.8736 26.4614C16.5316 26.4614 17.1763 26.3629 17.7291 26.2268L17.3775 25.0928C17.1453 25.147 16.5659 25.2178 15.8736 25.2178Z" fill="white"/>
<path d="M19.0494 24.3049C18.6735 24.4499 18.1814 24.6004 17.4736 24.7475L17.8065 25.8285C18.5286 25.6636 19.1401 25.4401 19.6344 25.2155L19.0505 24.9799V24.3049H19.0494Z" fill="white"/>
<path d="M11.4722 13.4345C12.3878 12.9399 14.6259 11.8512 13.1087 10.6773C12.902 10.518 12.6742 10.3742 12.4829 10.196C12.2462 10.3786 12.5713 10.8322 12.6532 10.9982C12.6532 10.9982 12.1478 11.0491 12.0273 11.0491C11.2466 11.0457 10.4283 10.5833 10.843 9.69702C10.5322 9.76122 10.4947 10.06 10.3996 10.3155C10.2005 10.1806 9.85443 9.89067 9.58789 9.9316C9.80466 10.6253 10.7169 11.2504 11.4246 11.3921C10.7092 11.7815 9.38224 12.0714 8.68446 11.2327C8.19461 12.1809 8.87687 12.577 9.54588 13.0738C6.99922 14.2366 7.37521 15.5411 5.70436 16.5678C5.9211 16.6696 6.88756 16.4649 6.97382 16.4528C6.61112 16.923 6.44189 17.1222 6.33577 17.3512C6.23404 17.5658 6.18866 17.8081 6.08808 18.3304C6.00956 18.7431 5.86579 19.1546 5.36377 19.4279C5.5606 19.7842 5.99737 19.5053 6.17982 19.4578C6.15552 19.4954 6.09357 19.9247 5.92994 20.1316C6.78802 20.0762 6.39103 18.2662 7.24917 18.7021C7.49132 18.8238 7.5643 19.1093 7.45263 19.3427C6.88866 20.5066 8.1703 21.5322 8.10061 22.5524C8.41574 22.5502 8.74195 22.5413 8.94765 22.1154C9.05494 22.3278 9.22077 22.6266 9.31368 22.9142L9.57024 22.4772C9.72831 23.2007 10.4029 23.869 11.3141 23.9288C10.8795 23.2406 11.4003 22.3013 10.3443 21.3022C10.4759 21.1959 10.78 20.9913 10.8883 20.8518C9.59234 21.0046 8.23993 19.9789 8.85369 19.4921C9.25507 19.1745 9.43087 19.8339 10.0502 19.7233L9.80793 19.5142C9.89309 19.4301 9.99041 19.3206 10.091 19.2376C9.82785 19.2055 9.54035 19.0373 9.54035 19.0373L9.69737 18.7774C8.17913 18.7751 8.14039 17.6134 8.7575 17.5669C9.04714 17.5459 9.42202 18.0803 10.3564 17.9685C10.237 17.8247 10.1895 17.6067 10.133 17.4463C10.3586 17.4253 10.6241 17.4275 10.8374 17.3236C10.3808 17.2649 10.2657 17.1111 9.88538 16.8234L10.3266 16.6619C9.68634 16.3421 9.72504 15.7856 9.70513 15.2059C10.0402 15.3984 10.4339 15.6971 10.8541 15.5588C10.9535 15.5256 11.0177 15.4791 11.0199 15.3751C10.4206 15.135 10.0358 14.2112 11.4722 13.4345ZM10.3786 13.5252C9.57682 14.3826 9.92408 14.8961 10.0855 15.0543C9.78693 14.9901 9.34131 14.6095 9.44303 14.2411C9.34794 14.355 9.25066 14.4789 9.15113 14.6062C8.95205 14.8717 8.77406 15.1317 8.61591 15.384C8.37261 16.1076 8.8183 16.8544 9.57682 17.1852C8.73423 17.0613 8.35604 16.3112 8.35829 15.8332C7.95575 16.5944 7.76337 17.2893 7.78104 17.8723C7.78878 18.0891 7.8076 18.2916 7.83635 18.483C8.02983 18.8503 8.34057 18.9853 8.89457 19.0528C8.39143 19.0849 8.12492 19.0617 7.90598 18.8316C8.24876 20.3064 9.85217 21.5832 10.5046 22.6763C9.85108 21.8266 8.49872 20.5608 8.02544 19.6459C7.98895 19.9767 8.0774 20.8242 8.4887 21.3453C7.88277 20.749 7.83519 19.8461 7.87504 19.3172C7.72134 18.9367 7.62399 18.5118 7.61071 18.0283C7.59859 17.5835 7.62954 17.1974 7.69697 16.8511C7.31441 17.3954 6.76146 17.6057 6.48947 18.4343C6.54253 17.3656 7.33982 17.3489 7.93693 16.0511C8.16805 15.4836 8.50426 14.9934 8.87578 14.438C8.40361 14.5929 8.04975 14.7036 7.5035 15.3021C7.89161 14.3838 10.1342 13.3515 11.1615 12.3524C10.8529 12.4177 9.59347 12.4498 9.07041 12.1001C10.018 12.3568 12.1268 12.0637 12.923 11.5193C12.3734 12.3104 11.1769 12.3557 9.7206 13.9291C9.90638 13.7808 10.1541 13.6314 10.3786 13.5252Z" fill="white"/>
<path d="M25.6574 18.3302C25.5567 17.808 25.5125 17.5657 25.4108 17.3511C25.3058 17.122 25.1354 16.9229 24.7716 16.4527C24.8579 16.4648 25.8265 16.6696 26.0422 16.5677C24.3713 15.5409 24.7473 14.2365 22.1995 13.0737C22.8685 12.5769 23.5508 12.1809 23.0609 11.2315C22.3632 12.0713 21.0362 11.7814 20.3208 11.3908C21.0296 11.2492 21.9408 10.6252 22.1575 9.93038C21.8899 9.88945 21.5438 10.1793 21.3448 10.3132C21.2496 10.0576 21.2131 9.75891 20.9024 9.6936C21.3171 10.581 20.4977 11.0434 19.7159 11.0468C19.5965 11.0468 19.0922 10.9959 19.0922 10.9959C19.1729 10.8299 19.498 10.3763 19.2603 10.1937C19.069 10.3729 18.8434 10.5157 18.6355 10.675C17.1173 11.8489 19.3576 12.9387 20.2732 13.4322C21.7075 14.2088 21.326 15.1327 20.7255 15.3695C20.7277 15.4735 20.7918 15.5199 20.8925 15.5531C21.3105 15.6926 21.7063 15.3939 22.0392 15.2002C22.0204 15.78 22.0602 16.3376 21.42 16.6563L21.8601 16.8178C21.4796 17.1054 21.3657 17.2592 20.9091 17.3179C21.1214 17.4218 21.389 17.4197 21.6135 17.4407C21.556 17.6011 21.5062 17.8191 21.389 17.9629C22.3245 18.0735 22.7004 17.5403 22.988 17.5613C23.6028 17.6078 23.5663 18.7695 22.0469 18.7717L22.2039 19.0317C22.2039 19.0317 21.9164 19.1999 21.6522 19.232C21.7528 19.3138 21.8512 19.4245 21.9363 19.5086L21.6942 19.7177C22.3123 19.8283 22.4892 19.1689 22.8907 19.4864C23.5043 19.9732 22.1531 20.9989 20.856 20.8462C20.9655 20.9856 21.2695 21.1914 21.4011 21.2976C20.344 22.2956 20.8637 23.236 20.4314 23.9253C21.3403 23.8645 22.0149 23.1962 22.1752 22.4726L22.4317 22.9097C22.5235 22.622 22.6916 22.3232 22.7967 22.1108C23.0012 22.5368 23.3296 22.5456 23.6459 22.5478C23.574 21.5278 24.8545 20.5021 24.2928 19.3382C24.18 19.1058 24.253 18.8204 24.4952 18.6975C25.3554 18.2616 24.9563 20.0717 25.8155 20.127C25.6507 19.9201 25.5899 19.4908 25.5667 19.4533C25.7481 19.5008 26.1837 19.7797 26.3806 19.4222C25.8818 19.1545 25.7381 18.7429 25.6574 18.3302ZM24.0507 16.8498C24.1181 17.1973 24.1524 17.5823 24.1369 18.0271C24.1225 18.5106 24.0263 18.9354 23.8726 19.316C23.9113 19.8449 23.8649 20.7477 23.2588 21.3441C23.6691 20.8218 23.7587 19.9755 23.7222 19.6446C23.2467 20.5597 21.8955 21.8254 21.2408 22.6751C21.8943 21.5819 23.4977 20.3041 23.8417 18.8303C23.6205 19.0594 23.3562 19.0837 22.8519 19.0516C23.4049 18.9841 23.7156 18.8492 23.9091 18.4819C23.9378 18.2915 23.9567 18.088 23.9644 17.8711C23.9832 17.288 23.7897 16.5932 23.3872 15.832C23.3905 16.31 23.0123 17.0601 22.1685 17.184C22.9249 16.8521 23.3717 16.1053 23.1295 15.3827C22.9725 15.1305 22.7956 14.8694 22.5943 14.605C22.4948 14.4777 22.3975 14.3538 22.3012 14.2399C22.403 14.6083 21.9573 14.9889 21.6588 15.0531C21.8213 14.8948 22.1675 14.3815 21.3669 13.524C21.5914 13.6302 21.8391 13.7796 22.0259 13.9257C20.5696 12.3523 19.3742 12.308 18.8224 11.5159C19.6197 12.0602 21.7285 12.3545 22.675 12.0967C22.1531 12.4464 20.8925 12.4143 20.584 12.349C21.6112 13.348 23.856 14.3804 24.243 15.2987C23.6968 14.7001 23.3418 14.5894 22.8719 14.4346C23.2445 14.9911 23.5784 15.4801 23.8095 16.0477C24.4078 17.3455 25.2062 17.361 25.2582 18.4309C24.9862 17.6044 24.4343 17.3942 24.0507 16.8498Z" fill="white"/>
<path d="M17.0479 14.9834C16.8079 15.3131 16.3712 15.5344 15.8746 15.5344C15.7585 15.5344 15.6469 15.5211 15.5407 15.5012C15.5706 15.6372 15.6402 15.7778 15.7851 15.8984C15.7265 16.2934 15.8968 16.6629 16.3203 16.7591C16.3656 16.9605 16.4895 17.1121 16.6996 17.184L16.4043 17.5248C16.2905 17.6553 16.1423 17.6974 16.0228 17.6819L14.7047 17.5325C14.7622 17.3865 14.6096 17.2172 14.1916 17.2892L14.7092 15.8398L14.394 15.1681L13.7958 15.6793L13.7515 17.1995L13.4938 17.0745C13.1621 16.9307 13.0637 17.5359 13.38 17.5381L13.5071 17.5392C13.4983 17.6012 13.5182 17.6698 13.5679 17.6919C13.5082 17.7162 13.4906 17.828 13.5647 17.8678C13.4895 17.9043 13.4784 18.0194 13.5392 18.0691C13.4739 18.1809 13.4618 18.4232 13.6929 18.4841C13.8831 18.5338 14.0025 18.3303 14.0413 18.2119L16.0925 18.847C16.3811 18.9299 16.589 18.8834 16.8301 18.6721L17.3653 18.2041C17.2978 18.5106 17.4073 18.7861 17.6406 18.878C17.6406 18.878 17.6041 19.159 17.6185 19.2752L18.3362 19.2762H19.4663V15.9017C19.4663 15.5875 19.5559 15.2733 19.6665 14.9834H18.3362H17.0479Z" fill="white"/>
<path d="M13.9758 20.6617L14.0156 20.7114C14.0709 20.78 14.1041 20.7634 14.1671 20.7269L14.2599 20.6771C14.3186 20.6328 14.7001 20.7789 14.7211 20.4614C14.7631 20.6981 14.4812 21.1971 14.6514 21.476L14.8804 21.851L14.1328 21.862C14.051 21.862 14.0079 21.9119 13.9858 21.9561L13.7901 22.3622C13.7392 22.4695 13.7425 22.5801 13.8066 22.6543L13.9393 22.8036C13.9393 22.8036 14.0477 22.7118 14.083 22.5912L14.0245 22.5304C13.9758 22.4839 13.9758 22.4396 14.0023 22.3821L14.1229 22.132C14.1693 22.0336 14.2169 22.0126 14.323 22.038L14.9279 22.1686C14.9721 22.1796 15.044 22.2006 15.0871 22.1265C15.1612 21.9948 15.2917 21.986 15.4244 22.007C15.7562 22.0568 16.5224 22.1365 16.7956 21.8167C17.1163 22.2426 17.7433 22.2426 17.7023 22.4662L17.5697 23.1986H17.7687L17.8904 22.4496C17.9036 22.3622 17.9578 22.2426 17.8638 22.1752C17.8251 22.1453 17.8074 22.1298 17.72 21.9794C17.6062 21.7802 17.6117 21.4815 17.5022 21.2236C17.6062 21.1009 17.7189 21.0588 17.8174 21.0821C18.0385 21.1363 18.0982 21.518 18.4123 21.8289C18.3769 21.6906 18.3614 21.539 18.2873 21.4073C18.2873 21.4073 18.5052 21.5766 18.5615 21.7747C18.5969 21.8986 18.6334 21.9893 18.7451 22.0469C18.8192 22.0734 18.9077 22.038 18.9961 21.9318C18.9961 21.9318 18.7893 21.6374 18.6379 21.445C18.4299 21.1805 18.1524 20.915 17.7742 20.9459C17.6548 20.9559 17.5398 21.0101 17.4303 21.0755C17.0001 20.8342 16.6662 21.0898 16.5335 21.0898L15.7285 21.0422C15.5704 21.0323 15.4454 20.8486 15.4454 20.8486C15.4255 20.1671 14.8781 19.896 14.6891 19.896C14.6891 19.896 14.7067 19.7732 14.657 19.73L14.4889 19.9414L14.0223 19.7709L14.3882 20.0708L13.9913 20.5322C13.9504 20.5775 13.9559 20.6373 13.9758 20.6617Z" fill="white"/>
<path d="M13.4485 21.6187C13.3356 21.7061 13.3412 21.8278 13.4087 21.9639L13.4761 22.09L13.652 21.9561L13.6122 21.8698C13.5834 21.8089 13.5845 21.747 13.6343 21.7083L13.8864 21.518C13.9571 21.466 13.9792 21.4605 14.0545 21.4715L14.5864 21.5833C14.5864 21.5833 14.5057 21.466 14.4791 21.3465L13.9782 21.2801C13.9074 21.2712 13.8642 21.3012 13.8023 21.3487L13.4485 21.6187Z" fill="white"/>
<path d="M16.8496 23.1988H17.0509L17.3738 22.4032C17.3848 22.3756 17.4003 22.3634 17.4125 22.3402C17.2676 22.2827 17.1824 22.2428 17.0619 22.1731C17.1426 22.2815 17.2057 22.328 17.1725 22.4287L16.8496 23.1988Z" fill="white"/>
<path d="M17.0213 12.439L17.394 10.2959L15.9819 10.7761V12.9856L17.0213 12.439ZM16.2208 10.9929L17.1574 10.6477C17.1574 10.6477 16.9749 10.796 16.7571 10.9453C16.5636 11.0792 16.2208 11.2219 16.2208 11.2219V10.9929ZM16.2208 11.5118L17.0778 11.2054C17.0778 11.2054 16.9749 11.3138 16.7582 11.4631C16.5647 11.5959 16.2219 11.7386 16.2219 11.7386V11.5118H16.2208ZM16.2208 12.0628L16.9749 11.7729C16.9749 11.7729 16.9749 11.8648 16.7571 12.013C16.5636 12.1469 16.2208 12.2896 16.2208 12.2896V12.0628Z" fill="white"/>
<path d="M14.5089 14.334L14.5399 14.3837H14.8307L14.834 14.4346C14.8374 14.4833 14.8484 14.5331 14.865 14.5839C14.9103 14.7223 14.9999 14.8672 15.1436 14.9845C15.3106 15.1195 15.5517 15.2169 15.8724 15.2169C16.568 15.2169 16.882 14.7665 16.9118 14.4346L16.914 14.3837H17.206L17.237 14.334C17.5112 13.9046 17.8462 13.4278 18.2354 13.3592L17.1739 12.7429L15.8724 13.4511L14.5697 12.7429L13.5093 13.3592C13.8985 13.4267 14.2336 13.9046 14.5089 14.334Z" fill="white"/>
<path d="M15.763 12.9856V10.7761L14.353 10.2959L14.7235 12.439L15.763 12.9856ZM15.5252 12.2918C15.5252 12.2918 15.1824 12.148 14.9889 12.0152C14.771 11.867 14.771 11.774 14.771 11.774L15.5263 12.0639V12.2918H15.5252ZM15.5252 10.9929V11.2219C15.5252 11.2219 15.1824 11.0792 14.9889 10.9453C14.7699 10.796 14.5863 10.6477 14.5863 10.6477L15.5252 10.9929ZM15.5252 11.5118V11.7397C15.5252 11.7397 15.1824 11.597 14.9889 11.4642C14.7699 11.3149 14.6682 11.2065 14.6682 11.2065L15.5252 11.5118Z" fill="white"/>
<path d="M15.8736 9.35107C15.0675 9.35107 14.4627 9.61551 14.3311 9.92526L15.8736 10.5349L17.414 9.92526C17.2835 9.61551 16.6798 9.35107 15.8736 9.35107Z" fill="white"/>
<path d="M15.8735 8.46585C16.4673 8.46585 17.0622 8.64616 17.4625 8.87965C17.5278 8.66388 17.5975 8.51007 17.6926 8.33415L17.3277 8.39062L17.0324 7.75996L16.4806 8.05315L15.8735 7.45239L15.2654 8.05315L14.7147 7.75996L14.4172 8.39062L14.0522 8.33415C14.1473 8.51007 14.2159 8.66388 14.2834 8.87965C14.6848 8.64616 15.2775 8.46585 15.8735 8.46585Z" fill="white"/>
<path d="M25.936 13.3228C26.135 13.2974 26.2953 13.231 26.4911 13.0849C26.0698 12.9732 25.1873 12.6534 24.4343 12.7973C24.1855 12.8305 24.0473 12.9311 24.1357 12.9887C24.5404 13.2575 25.0403 13.8805 25.4041 14.6074C25.7237 14.2102 25.5899 13.689 25.5224 13.5397C26.1593 13.9236 26.3263 14.1106 26.6215 14.0376C26.4634 13.7953 26.2412 13.5773 25.936 13.3228Z" fill="white"/>
<path d="M6.3425 14.6063C6.7063 13.8793 7.20612 13.2564 7.61195 12.9876C7.7026 12.93 7.56218 12.8293 7.31559 12.7961C6.56143 12.6534 5.67679 12.9721 5.25548 13.0839C5.4534 13.2299 5.61045 13.2963 5.81172 13.3217C5.50543 13.5773 5.28314 13.7941 5.125 14.0364C5.42246 14.1095 5.58833 13.9225 6.22419 13.5386C6.15895 13.6891 6.02402 14.2091 6.3425 14.6063Z" fill="white"/>
<path fill-rule="evenodd" clip-rule="evenodd" d="M10.7581 21.3532C11.0512 21.1208 11.2945 21.0046 11.2823 20.4415C10.8421 20.6672 9.59368 20.655 9.07176 19.9359C8.92471 19.7312 9.08174 19.6282 9.22438 19.7898C9.58152 20.1948 10.2428 20.0111 10.4839 19.8949C10.4452 19.7555 10.3379 19.574 10.2483 19.4966C10.339 19.4081 10.5945 19.2753 10.6464 19.0474C10.5104 18.9733 9.98072 18.9202 9.98072 18.9202C10.0659 18.8383 10.172 18.7243 10.1079 18.4201C9.56714 18.586 8.89813 18.3603 8.74664 18.1601C8.59738 17.9631 8.75 17.7784 8.87603 17.9089C9.14584 18.1922 10.4751 18.5164 10.9694 18.024C10.7857 17.9731 10.5834 17.8094 10.5469 17.7076C11.0047 17.6611 11.3696 17.3911 11.3995 17.0547C11.1462 17.0547 10.6685 17.036 10.5049 16.9143C10.7239 16.8335 10.8631 16.7538 10.9328 16.5082C10.0957 16.4573 10.0294 15.8355 10.025 15.7326C10.5702 16.0468 11.53 15.9074 11.2812 15.1329C10.8278 15.1086 10.3711 14.3751 11.6173 13.7013C12.7508 13.0872 14.039 12.4256 13.9251 11.3358C13.851 10.6387 12.7043 10.1629 12.5584 9.81005C12.0796 10.0379 11.9833 10.3024 12.1989 10.746C12.1989 10.746 11.1319 10.8523 11.0478 10.195C11.0114 9.90075 11.2082 9.62523 11.4194 9.41392C11.3 9.41392 10.496 9.19815 10.2539 9.85318C9.80383 9.54561 9.41787 9.55664 9.1149 9.88193C9.59926 10.1696 9.89888 11.1565 10.6995 11.4475C10.13 11.7562 9.20891 11.6267 8.67147 10.6774C8.16281 11.4442 7.8698 12.2032 8.96119 13.0141C6.97626 13.9181 6.99064 15.6463 5.26338 16.4695C5.4381 16.9397 5.80743 16.9397 6.27851 16.8667C5.53209 17.837 6.16794 18.8527 4.98584 19.2676C5.09641 19.6637 5.31869 19.9801 5.75437 19.8639C5.63053 20.0576 5.54872 20.0531 5.35628 20.2656C6.00207 20.6727 6.76841 20.3784 6.94202 19.0718C6.97297 18.8383 7.29364 18.9844 7.18307 19.2133C6.44658 20.7369 8.30877 21.8831 7.6497 23.0006C8.23025 22.9763 8.67365 22.9309 8.91478 22.7351C9.03306 22.9697 9.10496 23.202 9.07838 23.431C9.39909 23.3657 9.51628 23.1765 9.53838 22.9575C9.74848 23.5715 10.5005 24.2276 11.7036 24.2276C11.0655 23.316 11.6594 22.3921 10.7581 21.3532ZM9.5705 22.4762L9.31398 22.9132C9.22215 22.6255 9.0552 22.3268 8.9479 22.1144C8.74115 22.5403 8.41495 22.5492 8.10086 22.5514C8.17055 21.5313 6.88891 20.5057 7.45288 19.3417C7.56569 19.1094 7.49156 18.8239 7.24941 18.7011C6.39023 18.2652 6.78827 20.0752 5.93018 20.1305C6.09387 19.9237 6.15576 19.4944 6.18013 19.4568C5.99762 19.5043 5.56084 19.7832 5.36402 19.4269C5.86604 19.1536 6.0098 18.7421 6.08833 18.3293C6.18786 17.8071 6.23428 17.5649 6.33492 17.3502C6.4411 17.1212 6.61027 16.922 6.97297 16.4518C6.88671 16.4639 5.92135 16.6687 5.70351 16.5669C7.37436 15.5401 6.99837 14.2356 9.54504 13.0728C8.87712 12.576 8.19485 12.18 8.68367 11.2318C9.3814 12.0704 10.7073 11.7805 11.4238 11.3911C10.7161 11.2494 9.80383 10.6255 9.58815 9.9306C9.85469 9.88967 10.2008 10.1796 10.3987 10.3146C10.4949 10.0579 10.5325 9.76022 10.8432 9.69608C10.4286 10.5823 11.2469 11.0447 12.0276 11.0481C12.1492 11.0481 12.6534 10.9972 12.6534 10.9972C12.5727 10.8312 12.2465 10.3776 12.4831 10.195C12.6745 10.3743 12.9023 10.517 13.1091 10.6763C14.6273 11.8513 12.388 12.94 11.4725 13.4346C10.036 14.2113 10.4208 15.1363 11.0202 15.372C11.0179 15.4759 10.9539 15.5224 10.8543 15.5556C10.4341 15.695 10.0405 15.3951 9.70542 15.2027C9.72529 15.7824 9.68551 16.34 10.3268 16.6587L9.88563 16.8191C10.265 17.1079 10.3811 17.2606 10.8377 17.3203C10.6243 17.4243 10.36 17.4221 10.1333 17.4431C10.1908 17.6036 10.2373 17.8215 10.3567 17.9654C9.42228 18.076 9.04744 17.5427 8.75771 17.5637C8.1407 17.6102 8.17938 18.7719 9.69762 18.7741L9.54064 19.0341C9.54064 19.0341 9.8281 19.2023 10.0924 19.2343C9.99179 19.3163 9.89452 19.4269 9.80936 19.511L10.0515 19.7201C9.43117 19.8308 9.25645 19.1713 8.85394 19.4889C8.24023 19.9757 9.59259 21.0013 10.8886 20.8486C10.7803 20.9881 10.4751 21.1938 10.3446 21.3001C11.4006 22.298 10.8798 23.2385 11.3143 23.9278C10.4032 23.868 9.72865 23.1986 9.5705 22.4762Z" fill="#13141B"/>
<path fill-rule="evenodd" clip-rule="evenodd" d="M7.90419 18.8317C8.12428 19.0607 8.38964 19.085 8.8928 19.053C8.33877 18.9854 8.02803 18.8505 7.83455 18.4831C7.8069 18.2929 7.78808 18.0893 7.78034 17.8724C7.76267 17.2893 7.95505 16.5945 8.35759 15.8332C8.3554 16.3102 8.73246 17.0603 9.57619 17.1853C8.81758 16.8534 8.37197 16.1066 8.61523 15.3841C8.77334 15.1318 8.95141 14.8707 9.15045 14.6063C9.24999 14.479 9.34726 14.3551 9.44235 14.2412C9.34063 14.6096 9.78629 14.9902 10.0849 15.0544C9.9234 14.8961 9.57619 14.3839 10.3779 13.5264C10.1545 13.6326 9.90679 13.782 9.71887 13.9281C11.174 12.3547 12.3716 12.3105 12.9212 11.5183C12.1251 12.0626 10.0163 12.3569 9.0686 12.0991C9.59166 12.4488 10.8512 12.4167 11.1597 12.3514C10.1335 13.3505 7.89097 14.3828 7.5017 15.3011C8.04795 14.7015 8.40182 14.5919 8.8751 14.4381C8.50244 14.9946 8.16741 15.4836 7.93629 16.0512C7.33918 17.3479 6.54079 17.3645 6.48877 18.4333C6.76082 17.6046 7.31371 17.3944 7.69633 16.8501C7.62884 17.1975 7.59679 17.5825 7.60898 18.0273C7.62226 18.5108 7.71954 18.9356 7.87324 19.3162C7.83455 19.8451 7.88098 20.7479 8.48697 21.3443C8.07561 20.8232 7.98715 19.9756 8.02364 19.6449C8.498 20.5598 9.85044 21.8256 10.504 22.6753C9.85044 21.5833 8.24812 20.3065 7.90419 18.8317Z" fill="#13141B"/>
<path fill-rule="evenodd" clip-rule="evenodd" d="M22.8731 14.4383C23.3431 14.5932 23.6981 14.7027 24.2443 15.3023C23.8573 14.3841 21.6114 13.3518 20.5853 12.3527C20.8937 12.4169 22.1544 12.45 22.6763 12.1004C21.7297 12.3582 19.621 12.0639 18.8237 11.5195C19.3744 12.3117 20.5709 12.356 22.0272 13.9293C21.8404 13.7832 21.5926 13.6339 21.3682 13.5277C22.1687 14.3851 21.8226 14.8985 21.6601 15.0567C21.9586 14.9925 22.4042 14.6119 22.3025 14.2435C22.3988 14.3575 22.4961 14.4814 22.5956 14.6086C22.7957 14.8742 22.9727 15.1342 23.1308 15.3864C23.374 16.11 22.9273 16.8569 22.171 17.1877C23.0147 17.0637 23.3929 16.3125 23.3884 15.8357C23.7921 16.5969 23.9844 17.2917 23.9668 17.8747C23.959 18.0916 23.9403 18.2941 23.9115 18.4855C23.7169 18.8528 23.4061 18.9878 22.8532 19.0553C23.3575 19.0863 23.6218 19.063 23.8429 18.834C23.499 20.3088 21.8967 21.5856 21.2421 22.6787C21.8967 21.8291 23.2469 20.5633 23.7235 19.6483C23.76 19.9791 23.6715 20.8267 23.2601 21.3477C23.8662 20.7514 23.9126 19.8486 23.8739 19.3198C24.0265 18.9391 24.1227 18.5143 24.1382 18.0308C24.1525 17.5859 24.1183 17.1999 24.0519 16.8535C24.4356 17.3979 24.9874 17.6081 25.2606 18.4368C25.2086 17.3669 24.4102 17.3503 23.8119 16.0536C23.5797 15.4827 23.2458 14.9937 22.8731 14.4383Z" fill="#13141B"/>
<path fill-rule="evenodd" clip-rule="evenodd" d="M25.4699 16.8644C25.9398 16.9385 26.3092 16.9385 26.485 16.4683C24.7577 15.6451 24.7721 13.918 22.7872 13.0129C23.8786 12.2031 23.5845 11.443 23.0769 10.6762C22.5406 11.6255 21.6161 11.755 21.0489 11.4463C21.8472 11.1553 22.1492 10.1684 22.6335 9.88071C22.3305 9.55542 21.9435 9.54439 21.4934 9.85196C21.2501 9.19693 20.4473 9.41269 20.3268 9.41269C20.5369 9.62291 20.7359 9.89844 20.6983 10.1938C20.6154 10.851 19.5483 10.7448 19.5483 10.7448C19.7639 10.3011 19.6677 10.0367 19.1889 9.80877C19.043 10.1617 17.8974 10.6375 17.8221 11.3345C17.7072 12.4244 18.9976 13.086 20.13 13.7001C21.3762 14.3739 20.9195 15.1085 20.4672 15.1317C20.2162 15.9062 21.176 16.0456 21.7223 15.7314C21.7201 15.8343 21.6504 16.4561 20.8134 16.507C20.8841 16.7526 21.0224 16.8323 21.2413 16.9131C21.0776 17.0359 20.5999 17.0535 20.3478 17.0535C20.3777 17.3899 20.7437 17.661 21.2014 17.7064C21.165 17.8082 20.9615 17.9719 20.7791 18.0228C21.2734 18.5151 22.6025 18.1909 22.8724 17.9077C22.9962 17.7771 23.1476 17.9619 22.9995 18.1589C22.8469 18.3602 22.179 18.5859 21.6371 18.4189C21.5752 18.722 21.6792 18.8371 21.7643 18.9189C21.7643 18.9189 21.2347 18.9721 21.0975 19.0462C21.1495 19.2741 21.406 19.4058 21.4956 19.4954C21.4049 19.5728 21.2976 19.7543 21.259 19.8937C21.5023 20.011 22.1635 20.1936 22.5185 19.7886C22.6623 19.6282 22.8193 19.73 22.6722 19.9346C22.1502 20.6538 20.9018 20.6648 20.4606 20.4403C20.4484 21.0034 20.6917 21.1196 20.9847 21.3519C20.0824 22.3908 20.6784 23.3147 20.0404 24.2241C21.2424 24.2241 21.9943 23.5681 22.2044 22.954C22.2288 23.172 22.3438 23.3623 22.6634 23.4276C22.639 23.1985 22.7098 22.9662 22.827 22.7317C23.0703 22.9275 23.5137 22.9728 24.0943 22.9972C23.4363 21.8797 25.2985 20.7334 24.5598 19.2099C24.4503 18.9809 24.771 18.8349 24.8019 19.0683C24.9745 20.375 25.7419 20.6693 26.3888 20.2622C26.1942 20.0497 26.1134 20.0541 25.9896 19.8605C26.4253 19.9767 26.6464 19.6602 26.7581 19.2642C25.5815 18.8504 26.2174 17.8347 25.4699 16.8644ZM25.5694 19.4578C25.5926 19.4954 25.6534 19.9247 25.8182 20.1316C24.959 20.0763 25.3571 18.2662 24.4979 18.7021C24.2557 18.8238 24.1838 19.1093 24.2955 19.3427C24.8572 20.5066 23.5767 21.5323 23.6486 22.5524C23.3323 22.5502 23.0039 22.5413 22.7993 22.1154C22.6943 22.3278 22.5251 22.6265 22.4333 22.9142L22.1768 22.4771C22.0176 23.2008 21.343 23.869 20.434 23.9299C20.8664 23.2417 20.3467 22.3012 21.4038 21.3022C21.2711 21.196 20.9671 20.9901 20.8576 20.8508C22.1547 21.0034 23.506 19.9778 22.8922 19.4909C22.4908 19.1735 22.3139 19.8328 21.6957 19.7222L21.938 19.5131C21.8528 19.429 21.7544 19.3195 21.6538 19.2365C21.918 19.2044 22.2055 19.0362 22.2055 19.0362L22.0485 18.7762C23.5668 18.774 23.6033 17.6123 22.9896 17.5658C22.7009 17.5448 22.325 18.0791 21.3905 17.9674C21.5089 17.8236 21.5575 17.6057 21.615 17.4452C21.3895 17.4242 21.123 17.4264 20.9106 17.3224C21.3674 17.2637 21.4824 17.11 21.8616 16.8223L21.4216 16.6608C22.0618 16.3411 22.0209 15.7845 22.0408 15.2047C21.7068 15.3973 21.3109 15.696 20.8941 15.5577C20.7945 15.5245 20.7293 15.478 20.7271 15.374C21.3276 15.1372 21.7101 14.2134 20.2748 13.4367C19.3603 12.9421 17.12 11.8535 18.6371 10.6796C18.845 10.5202 19.0706 10.3764 19.2608 10.1983C19.4986 10.3808 19.1735 10.8344 19.0927 11.0004C19.0927 11.0004 19.5969 11.0513 19.7164 11.0513C20.4982 11.048 21.3176 10.5855 20.9029 9.69814C21.2136 9.76235 21.2501 10.0622 21.3452 10.3177C21.5443 10.1828 21.8893 9.89399 22.158 9.93492C21.9401 10.6286 21.0301 11.2537 20.3212 11.3954C21.0368 11.7848 22.3637 12.0747 23.0614 11.2361C23.5502 12.1842 22.869 12.5804 22.2 13.0771C24.7477 14.2388 24.3707 15.5444 26.0426 16.5711C25.827 16.6729 24.8583 16.4683 24.7721 16.4561C25.137 16.9263 25.3073 17.1255 25.4112 17.3545C25.5129 17.5691 25.5572 17.8103 25.6578 18.3337C25.7374 18.7464 25.8823 19.1579 26.3821 19.4312C26.1864 19.7842 25.7507 19.5054 25.5694 19.4578Z" fill="#13141B"/>
<path fill-rule="evenodd" clip-rule="evenodd" d="M13.4375 22.3135L13.8013 22.0047L13.746 21.8941C13.7062 21.8145 13.7272 21.81 13.7692 21.7791L13.9616 21.6363C14.0059 21.5998 14.0523 21.6042 14.1065 21.6175L14.6826 21.7525H14.0744C13.934 21.7613 13.8931 21.8156 13.8422 21.9196L13.8002 22.0047L13.6443 22.3256C13.5912 22.4363 13.5635 22.5834 13.7029 22.7494L13.8135 22.881L13.5901 23.3336H13.7781L13.9329 23.0193C13.9451 23.0083 14.174 22.7992 14.2226 22.5834C14.1563 22.5292 14.1098 22.4916 14.1463 22.4164L14.216 22.2659C14.2392 22.2161 14.247 22.1961 14.3133 22.2083L14.917 22.3389C14.9922 22.3599 15.1028 22.3931 15.1835 22.2714C15.2665 22.1453 15.2776 22.1586 15.4699 22.1773L15.7785 22.2105C16.1998 22.2504 16.6211 22.1453 16.7847 22.0148C16.8422 22.1453 16.9562 22.246 17.0092 22.3478C17.0291 22.3854 16.996 22.4385 16.9705 22.5049L16.6244 23.3325H17.1585L17.4604 22.5779C17.488 22.506 17.5289 22.4484 17.5599 22.4197L17.3863 23.3336H17.9049L18.0421 22.4296C18.0719 22.2283 18.0542 22.1641 17.958 22.0811C17.7424 21.8985 17.7468 21.5157 17.6771 21.2834C17.7136 21.2624 17.7567 21.2513 17.8076 21.2579C17.9204 21.2679 18.0056 21.5567 18.1382 21.7425C18.4036 22.1154 18.7652 22.527 19.1799 21.9473C19.1401 21.8808 19.097 21.8211 19.0461 21.7636L18.93 21.6275C18.8626 21.5522 18.5419 21.1849 18.408 21.0532C18.1039 20.7468 17.6373 20.7933 17.4515 20.9426C17.0302 20.7213 16.5857 20.9537 16.4807 20.9448L15.7553 20.9005C15.7221 20.8983 15.6723 20.8873 15.6369 20.8308L15.7718 20.7866C15.6458 20.2611 15.3284 19.8219 14.7744 19.7455C14.7744 19.7455 14.7423 19.5795 14.6572 19.5474L14.4913 19.7422C14.4449 19.7488 14.394 19.7632 14.352 19.7809L13.6443 19.5176L14.1751 20.0542C14.1751 20.0542 13.8997 20.4447 13.8212 20.5244C13.7692 20.5974 13.7736 20.6538 13.8322 20.7235L13.9351 20.8585C13.9882 20.9282 14.0468 20.926 14.1319 20.8829L14.248 20.822C14.2989 20.78 14.4692 20.863 14.5422 20.7965C14.4958 20.9493 14.4725 21.0964 14.4615 21.2126L13.9849 21.155C13.8809 21.1407 13.8334 21.155 13.7704 21.2048L13.3634 21.5179C13.2307 21.6197 13.1898 21.7956 13.2716 21.9672L13.4375 22.3135ZM17.3741 22.4031L17.0512 23.1997H16.8499L17.1729 22.4285C17.206 22.3289 17.143 22.2825 17.0623 22.174C17.1817 22.2416 17.268 22.2857 17.4128 22.3411C17.4006 22.3632 17.3852 22.3754 17.3741 22.4031ZM14.2602 20.6782L14.1684 20.7269C14.1043 20.7634 14.0722 20.78 14.0169 20.7114L13.9771 20.6605C13.9572 20.6361 13.9506 20.5775 13.9915 20.531L14.3874 20.0697L14.0225 19.7698L14.4869 19.9413L14.6572 19.7289C14.7069 19.7709 14.6893 19.8937 14.6893 19.8937C14.8773 19.8937 15.4246 20.1659 15.4456 20.8475C15.4456 20.8475 15.5695 21.03 15.7276 21.04L16.5337 21.0887C16.6675 21.0887 17.0015 20.8342 17.4305 21.0743C17.5389 21.009 17.655 20.957 17.7744 20.9437C18.1526 20.9161 18.4313 21.1794 18.6381 21.4449C18.7896 21.6374 18.9974 21.9317 18.9974 21.9317C18.9079 22.0379 18.8205 22.0733 18.7465 22.0468C18.6347 21.9893 18.5982 21.8997 18.5629 21.7746C18.5065 21.5766 18.2886 21.4073 18.2886 21.4073C18.3627 21.5401 18.3782 21.6906 18.4136 21.8288C18.0984 21.5168 18.0387 21.1362 17.8187 21.0831C17.7214 21.0588 17.6075 21.1008 17.5024 21.2225C17.613 21.4803 17.6075 21.7791 17.7214 21.9793C17.8076 22.1287 17.8264 22.1419 17.8651 22.1751C17.958 22.2416 17.906 22.3621 17.8917 22.4496L17.7722 23.1986H17.571L17.7037 22.4661C17.7446 22.2426 17.1176 22.2426 16.7969 21.8166C16.5237 22.1364 15.7575 22.0568 15.4257 22.007C15.2919 21.987 15.1615 21.9959 15.0885 22.1275C15.0454 22.2017 14.9734 22.1796 14.9292 22.1685L14.3243 22.0379C14.2182 22.0136 14.1717 22.0346 14.1253 22.132L14.0047 22.3821C13.9782 22.4407 13.9793 22.4839 14.028 22.5315L14.0855 22.5923C14.0512 22.7117 13.9418 22.8036 13.9418 22.8036L13.8101 22.6554C13.746 22.5801 13.7427 22.4717 13.7935 22.3655L13.9893 21.9561C14.0125 21.9107 14.0545 21.8621 14.1363 21.8621L14.8838 21.8509L14.655 21.4781C14.4846 21.1982 14.7677 20.6992 14.7246 20.4635C14.7014 20.7789 14.3199 20.635 14.2602 20.6782ZM13.4486 21.6186L13.8024 21.3486C13.8654 21.3011 13.9075 21.2701 13.9794 21.2789L14.4791 21.3454C14.5068 21.4649 14.5864 21.5821 14.5864 21.5821L14.0545 21.4703C13.9793 21.4615 13.9572 21.4649 13.8864 21.5157L13.6343 21.706C13.5845 21.7448 13.5823 21.8067 13.6111 21.8676L13.652 21.955L13.4762 22.0877L13.4087 21.9616C13.3402 21.8278 13.3358 21.7049 13.4486 21.6186Z" fill="#13141B"/>
<path fill-rule="evenodd" clip-rule="evenodd" d="M14.99 12.014C15.1835 12.1479 15.5263 12.2906 15.5263 12.2906V12.0626L14.771 11.7739C14.771 11.7739 14.771 11.8668 14.99 12.014Z" fill="#13141B"/>
<path fill-rule="evenodd" clip-rule="evenodd" d="M15.5249 11.7395V11.5116L14.668 11.2051C14.668 11.2051 14.7697 11.3136 14.9887 11.4629C15.1822 11.5956 15.5249 11.7395 15.5249 11.7395Z" fill="#13141B"/>
<path fill-rule="evenodd" clip-rule="evenodd" d="M15.5253 11.2216V10.9927L14.5864 10.6475C14.5864 10.6475 14.77 10.7957 14.989 10.9451C15.1824 11.0789 15.5253 11.2216 15.5253 11.2216Z" fill="#13141B"/>
<path fill-rule="evenodd" clip-rule="evenodd" d="M18.1626 14.3341H19.1224C19.0826 14.1947 18.9333 14.0542 18.6535 14.0542C18.3882 14.0542 18.2289 14.2069 18.1626 14.3341Z" fill="#13141B"/>
<path fill-rule="evenodd" clip-rule="evenodd" d="M17.1584 10.6475L16.2217 10.9927V11.2216C16.2217 11.2216 16.5645 11.0789 16.758 10.9451C16.9758 10.7957 17.1584 10.6475 17.1584 10.6475Z" fill="#13141B"/>
<path fill-rule="evenodd" clip-rule="evenodd" d="M16.9758 11.7739L16.2217 12.0637V12.2917C16.2217 12.2917 16.5645 12.1479 16.758 12.0151C16.9758 11.8668 16.9758 11.7739 16.9758 11.7739Z" fill="#13141B"/>
<path fill-rule="evenodd" clip-rule="evenodd" d="M17.0777 11.2051L16.2207 11.5116V11.7395C16.2207 11.7395 16.5646 11.5967 16.757 11.464C16.976 11.3136 17.0777 11.2051 17.0777 11.2051Z" fill="#13141B"/>
<path fill-rule="evenodd" clip-rule="evenodd" d="M13.0914 14.0542C12.8116 14.0542 12.6623 14.1947 12.6226 14.3341H13.5835C13.5149 14.2069 13.3579 14.0542 13.0914 14.0542Z" fill="#13141B"/>
<path fill-rule="evenodd" clip-rule="evenodd" d="M17.7798 10.0322C17.7798 9.49234 16.8731 9.00879 15.8723 9.00879C14.8715 9.00879 13.9648 9.49234 13.9648 10.0322L13.9858 10.165L14.3839 12.4586L12.493 13.5617C12.2917 13.68 12.0396 14.0053 12.0075 14.3329H12.3526C12.4101 14.0053 12.6677 13.6425 13.1509 13.6646C13.5877 13.6878 13.8465 13.9534 14.103 14.3329L14.1694 14.4324L14.2645 14.5818H11.4834C11.688 14.9923 11.8815 15.4282 11.8815 15.9006V21.6861C11.8815 23.1742 13.0238 23.8834 14.2612 23.8834C15.2166 23.8834 15.3459 23.8402 15.8734 24.368C16.3987 23.8402 16.528 23.8834 17.4857 23.8834C18.722 23.8834 19.8653 23.1742 19.8653 21.6861V15.9018C19.8653 15.4293 20.0589 14.9934 20.2634 14.5829H17.4802L17.5763 14.4335L17.6427 14.334C17.8981 13.9545 18.158 13.6889 18.5948 13.6657C19.0758 13.6436 19.3357 14.0064 19.3921 14.334H19.736C19.705 14.0064 19.4518 13.68 19.2516 13.5628L17.3607 12.4597L17.7599 10.1661L17.7798 10.0322ZM14.3518 10.2956L15.7629 10.7758V12.9852L14.7234 12.4387L14.3518 10.2956ZM14.6991 14.9834C14.8848 15.2379 15.1856 15.426 15.5416 15.499C15.5715 15.6329 15.6445 15.78 15.786 15.8984C15.7274 16.2934 15.8966 16.6618 16.3213 16.7592C16.3655 16.9606 16.4904 17.1122 16.6995 17.184L16.4042 17.5249C16.2914 17.6554 16.1443 17.6974 16.0227 17.6819L14.7046 17.5326C14.7621 17.3865 14.6095 17.2172 14.1926 17.2892L14.7112 15.8398L14.3949 15.1682L13.7956 15.6794L13.7514 17.1996L13.4971 17.0745C13.162 16.9307 13.0647 17.5359 13.3832 17.5381L13.5092 17.5392C13.5015 17.6012 13.5203 17.6698 13.569 17.6908C13.5092 17.7162 13.4915 17.8291 13.5667 17.8689C13.4904 17.9044 13.4804 18.0194 13.5413 18.0692C13.475 18.1809 13.465 18.4233 13.6961 18.4841C13.8852 18.5339 14.0035 18.3303 14.0422 18.2119L16.0923 18.847C16.3831 18.93 16.5889 18.8835 16.8299 18.6722L17.3652 18.2042C17.2976 18.5107 17.4083 18.7861 17.6416 18.878C17.6416 18.878 17.6084 19.1535 17.6184 19.2763H12.2807V15.9018C12.2807 15.5875 12.19 15.2733 12.0817 14.9834H14.6991ZM16.904 16.2636C16.7912 16.4793 16.8023 16.7271 16.935 16.9517L16.8465 17.038C16.4617 16.9904 16.3102 16.4162 16.3102 16.4162C16.3024 16.4682 16.2981 16.518 16.2992 16.5689C16.0747 16.486 15.9331 16.2867 15.9442 16.0135C16.0294 16.061 16.1245 16.0942 16.2262 16.112L16.2527 15.9438C15.984 15.8973 15.827 15.7291 15.7673 15.53C15.754 15.5289 15.7429 15.5256 15.7307 15.5244C15.7783 15.5278 15.8259 15.5322 15.8745 15.5322C16.0338 15.5322 16.1852 15.5079 16.3268 15.4658C16.4385 15.6251 16.6364 15.7391 16.8355 15.7612C16.8034 15.8939 16.8189 16.0589 16.904 16.2636ZM17.4735 17.7815C17.4348 17.8335 17.4039 17.8933 17.3839 17.9586L17.1694 18.1555C17.2126 17.8413 17.0013 17.4707 16.8089 17.319L17.0367 17.0955L17.0821 17.142C17.0057 17.3423 17.1551 17.7351 17.4735 17.7815ZM16.4374 17.6831L16.6143 17.5093C16.7935 17.6665 17.0301 18.0172 16.956 18.3513L16.7636 18.5283C16.7238 18.5671 16.6829 18.5947 16.6408 18.6202C16.7614 18.3225 16.6076 17.8645 16.4374 17.6831ZM16.0569 17.8302H16.0625C16.1266 17.8401 16.1952 17.8291 16.2571 17.8037C16.392 17.9962 16.4971 18.4343 16.3356 18.7076C16.2439 18.7098 16.1543 18.6932 16.0702 18.6689L16.0039 18.649C16.1399 18.4376 16.1211 18.0637 16.0569 17.8302ZM15.6113 17.7749L15.8601 17.8058C15.9 18.0128 15.8734 18.3701 15.7418 18.5737L15.4521 18.4896C15.5793 18.317 15.639 17.9619 15.6113 17.7749ZM15.0928 17.7118L15.3946 17.7472C15.4245 17.9132 15.368 18.2661 15.2542 18.4343L14.9467 18.3458C15.0695 18.1832 15.1137 17.8966 15.0928 17.7118ZM13.8708 17.631C13.7304 17.6764 13.6685 17.5746 13.674 17.4883C13.9493 17.3876 14.0721 17.4529 14.1528 17.5038C14.2269 17.5502 14.2888 17.6831 14.3883 17.766C14.3717 17.8789 14.3374 18.0427 14.2965 18.1522C14.0146 18.0802 14.0002 17.8313 14.1052 17.6797C14.0466 17.6111 13.9847 17.5934 13.8708 17.631ZM13.674 18.1809C13.674 18.1809 13.7581 18.2164 13.8642 18.2241C13.8521 18.2827 13.8066 18.338 13.7348 18.3225C13.6751 18.3093 13.6485 18.2362 13.674 18.1809ZM13.3964 17.3733C13.3267 17.3268 13.3577 17.225 13.4351 17.225C13.5203 17.2272 13.6331 17.3235 13.7448 17.371C13.7448 17.371 13.4517 17.4109 13.3964 17.3733ZM13.6828 17.9597C13.7437 18.0183 13.9261 17.9962 13.9261 17.9962L13.9328 18.0326C13.8531 18.1389 13.6319 18.0913 13.6828 17.9597ZM13.9283 17.839C13.7978 17.8911 13.6641 17.8202 13.7049 17.7362C13.7658 17.7915 13.935 17.7638 13.935 17.7638L13.9283 17.839ZM14.1207 16.32L13.8708 17.2305L13.956 15.7612L14.343 15.4304L14.5398 15.863L14.0422 17.2903L14.1738 16.3299C14.186 16.2613 14.1318 16.2535 14.1207 16.32ZM14.1384 17.4242C14.1384 17.4242 14.417 17.4109 14.4956 17.4407C14.5531 17.4651 14.5144 17.5624 14.4392 17.5514C14.3607 17.5414 14.1384 17.4242 14.1384 17.4242ZM14.5752 17.6454L14.8782 17.6831C14.9014 17.849 14.8583 18.13 14.7499 18.2871L14.4569 18.2019C14.5343 18.0172 14.5531 17.8435 14.5752 17.6454ZM19.4661 21.6871C19.4661 22.3908 19.1411 22.9252 18.6003 23.2218L18.7939 22.8279H18.6059L18.357 23.3324C18.0994 23.4297 17.8075 23.4839 17.4846 23.4839C16.4982 23.4839 16.2372 23.5238 15.8723 23.8878C15.5063 23.5238 15.2453 23.4839 14.2601 23.4839C13.9394 23.4839 13.6474 23.432 13.3909 23.3345H13.3976L13.6463 22.8279H13.4594L13.2416 23.2715C13.1896 23.2472 13.1388 23.2207 13.0901 23.1918L13.2693 22.8279H13.0835L12.9508 23.0989C12.5284 22.788 12.2796 22.3012 12.2796 21.6871V19.4743H19.464V21.6871H19.4661ZM19.6663 14.9834C19.5547 15.2733 19.4651 15.5875 19.4651 15.9018V19.2763H19.0725C18.8945 19.1037 18.7441 18.5283 18.7441 18.5283C18.6467 18.7352 18.7585 19.1546 18.8624 19.2763H18.357C18.2321 19.107 18.1237 18.5073 18.1237 18.5073C17.9722 18.6799 18.0685 19.1457 18.1624 19.2763H17.8262C17.8052 19.0362 17.8738 18.7751 17.8738 18.7751C17.698 18.743 17.5111 18.65 17.5122 18.4553C17.6007 18.5383 17.6371 18.5372 17.7599 18.5349L17.9026 18.4222C17.4293 18.4376 17.4072 17.9176 17.7831 17.6742C17.4083 17.6863 17.1285 17.4629 17.2645 17.0646C16.998 16.9263 16.904 16.4748 17.1008 16.2768C16.9582 16.1219 16.935 15.8176 17.0257 15.6108C16.8366 15.6108 16.6243 15.5355 16.5059 15.4061C16.4971 15.4105 16.486 15.4138 16.4761 15.4171C16.7127 15.3209 16.9128 15.1704 17.0478 14.9845H19.6663V14.9834ZM18.2354 13.3592C17.8462 13.4267 17.5111 13.9035 17.2369 14.334L17.2059 14.3837H16.9128L16.9117 14.4346C16.8819 14.7666 16.5668 15.2169 15.8723 15.2169C15.5516 15.2169 15.3094 15.1184 15.1436 14.9845C14.9998 14.8672 14.9092 14.7223 14.8649 14.584C14.8484 14.5342 14.8384 14.4833 14.834 14.4346L14.8318 14.3837H14.5409L14.51 14.334C14.2346 13.9047 13.8996 13.4278 13.5115 13.3592L14.5719 12.7429L15.8745 13.4511L17.175 12.7429L18.2354 13.3592ZM17.0212 12.4387L15.9829 12.9852V10.7758L17.3939 10.2956L17.0212 12.4387ZM15.8734 10.5345L14.3308 9.9249C14.4613 9.61514 15.0662 9.35071 15.8734 9.35071C16.6795 9.35071 17.2833 9.61514 17.4138 9.9249L15.8734 10.5345Z" fill="#13141B"/>
<path fill-rule="evenodd" clip-rule="evenodd" d="M19.3016 17.1642L19.3049 16.9949C18.7863 16.9827 18.6669 16.3708 18.6669 16.3708C18.5154 16.8211 18.9113 17.1575 19.3016 17.1642Z" fill="#13141B"/>
<path fill-rule="evenodd" clip-rule="evenodd" d="M18.6469 18.2009L18.595 18.0405C18.1527 18.1533 17.9238 17.4519 17.9238 17.4519C17.7822 17.9619 18.2754 18.3226 18.6469 18.2009Z" fill="#13141B"/>
<path fill-rule="evenodd" clip-rule="evenodd" d="M18.954 17.5506C18.4255 17.6347 18.2088 17.0195 18.2088 17.0195C18.1501 17.3548 18.3669 17.6945 18.7174 17.7299C18.6378 18.1669 19.0436 18.3915 19.3953 18.2354L19.3444 18.0828C19.0392 18.1857 18.7528 17.8836 18.954 17.5506Z" fill="#13141B"/>
<path fill-rule="evenodd" clip-rule="evenodd" d="M18.6381 15.7946L18.6425 15.6253C17.9447 15.4814 18.0034 15.0012 18.0034 15.0012C17.853 15.4538 18.2489 15.7879 18.6381 15.7946Z" fill="#13141B"/>
<path fill-rule="evenodd" clip-rule="evenodd" d="M14.2167 22.8279L13.9668 23.3346H14.1548L14.4036 22.8279H14.2167Z" fill="#13141B"/>
<path fill-rule="evenodd" clip-rule="evenodd" d="M14.5941 22.8279L14.3452 23.3346H14.5344L14.7809 22.8279H14.5941Z" fill="#13141B"/>
<path fill-rule="evenodd" clip-rule="evenodd" d="M16.1048 22.8279L15.856 23.3346H16.0428L16.2927 22.8279H16.1048Z" fill="#13141B"/>
<path fill-rule="evenodd" clip-rule="evenodd" d="M16.483 22.8279L16.2319 23.3346H16.421L16.6687 22.8279H16.483Z" fill="#13141B"/>
<path fill-rule="evenodd" clip-rule="evenodd" d="M15.7274 22.8279L15.4775 23.3346H15.6655L15.9143 22.8279H15.7274Z" fill="#13141B"/>
<path fill-rule="evenodd" clip-rule="evenodd" d="M17.9336 23.3346H18.1216L18.3704 22.8279H18.1824L17.9336 23.3346Z" fill="#13141B"/>
<path fill-rule="evenodd" clip-rule="evenodd" d="M14.972 22.8279L14.7231 23.3346H14.9111L15.16 22.8279H14.972Z" fill="#13141B"/>
<path fill-rule="evenodd" clip-rule="evenodd" d="M15.3484 22.8279L15.0996 23.3346H15.2887L15.5375 22.8279H15.3484Z" fill="#13141B"/>
<path fill-rule="evenodd" clip-rule="evenodd" d="M14.4943 20.104C14.46 20.104 14.4302 20.1372 14.4302 20.1804C14.4302 20.2224 14.46 20.2567 14.4943 20.2567C14.5297 20.2567 14.5607 20.2224 14.5607 20.1804C14.5596 20.1372 14.5297 20.104 14.4943 20.104Z" fill="#13141B"/>
<path fill-rule="evenodd" clip-rule="evenodd" d="M15.8733 8.6673C16.6474 8.6673 17.2677 8.924 17.6094 9.19951C17.6094 9.19951 17.7122 8.58433 18.0584 8.04444L17.4347 8.11412L17.1085 7.41932L16.4815 7.74571L15.8733 7.1416L15.2651 7.74571L14.6359 7.41932L14.3097 8.11412L13.686 8.04444C14.0332 8.58433 14.135 9.19951 14.135 9.19951C14.4779 8.924 15.0993 8.6673 15.8733 8.6673ZM14.417 8.39074L14.7145 7.76008L15.2651 8.05327L15.8733 7.45252L16.4815 8.05327L17.0322 7.76008L17.3263 8.39074L17.6924 8.33427C17.5984 8.5102 17.5276 8.66401 17.4624 8.87977C17.0621 8.64628 16.4671 8.46597 15.8733 8.46597C15.2773 8.46597 14.6835 8.64628 14.2832 8.87977C14.2168 8.66401 14.1472 8.5102 14.0521 8.33427L14.417 8.39074Z" fill="#13141B"/>
<path fill-rule="evenodd" clip-rule="evenodd" d="M16.5104 7.42477C16.6011 7.43251 16.6818 7.36392 16.6895 7.27426C16.6984 7.18355 16.5657 6.94238 16.5657 6.94238C16.5657 6.94238 16.3677 7.15589 16.3611 7.2466C16.3523 7.33511 16.4208 7.41588 16.5104 7.42477Z" fill="#13141B"/>
<path fill-rule="evenodd" clip-rule="evenodd" d="M17.5322 7.79519C17.6129 7.83832 17.7113 7.80627 17.7544 7.7255C17.7987 7.64582 17.7699 7.37256 17.7699 7.37256C17.7699 7.37256 17.5067 7.49092 17.4636 7.57169C17.4216 7.65137 17.4526 7.75091 17.5322 7.79519Z" fill="#13141B"/>
<path fill-rule="evenodd" clip-rule="evenodd" d="M15.2353 7.42477C15.3271 7.41588 15.3946 7.33627 15.3868 7.2466C15.378 7.15589 15.1823 6.94238 15.1823 6.94238C15.1823 6.94238 15.0507 7.18465 15.0584 7.27426C15.0651 7.36392 15.1458 7.43251 15.2353 7.42477Z" fill="#13141B"/>
<path fill-rule="evenodd" clip-rule="evenodd" d="M14.2146 7.79519C14.2953 7.75091 14.3251 7.65137 14.2831 7.57169C14.2411 7.49092 13.9768 7.37256 13.9768 7.37256C13.9768 7.37256 13.9492 7.64582 13.9934 7.7255C14.0343 7.80627 14.1339 7.83832 14.2146 7.79519Z" fill="#13141B"/>
<path fill-rule="evenodd" clip-rule="evenodd" d="M26.4728 13.4159C26.6906 13.3384 26.8587 13.1304 26.9427 12.9379C26.3887 12.8583 24.9169 12.2397 23.7071 12.7432C24.1605 12.3128 24.5674 12.2574 24.6061 11.6379C24.7941 11.7729 25.1115 11.8492 25.2907 11.5272C25.1657 11.1588 24.8506 11.4575 24.8063 11.3557C24.7443 11.2141 25.2033 11.3989 25.3017 10.9198C24.9445 10.797 24.8383 11.0891 24.7742 11.0216C24.7156 10.9574 25.0009 10.8346 24.7908 10.4485C24.4193 10.6664 24.6128 10.911 24.5343 10.9386C24.4391 10.9762 24.5144 10.6764 24.103 10.6908C24.0621 11.1322 24.4889 11.1466 24.4193 11.2163C24.3341 11.3015 24.2236 10.9629 23.9128 11.1345C23.9184 11.4907 24.2069 11.6865 24.5044 11.6025C24.4558 12.2795 23.8343 12.1535 23.3721 12.9169C24.3518 13.4192 24.7952 14.2954 25.3979 14.9017C25.597 14.7602 25.9375 14.1317 25.9375 14.1317C26.5899 14.6374 27.0489 14.1339 27.0489 14.1339C26.8244 13.9038 26.8155 13.729 26.4728 13.4159ZM25.5218 13.5387C25.5892 13.688 25.723 14.2091 25.4034 14.6064C25.0396 13.8794 24.5398 13.2565 24.135 12.9877C24.0466 12.9301 24.1837 12.8294 24.4337 12.7962C25.1867 12.6535 26.0702 12.9722 26.4904 13.084C26.2947 13.23 26.1354 13.2964 25.9354 13.3207C26.2406 13.5774 26.4639 13.7942 26.6209 14.0355C26.3256 14.1096 26.1587 13.9226 25.5218 13.5387Z" fill="#13141B"/>
<path fill-rule="evenodd" clip-rule="evenodd" d="M19.2303 24.8396V24.012C18.5911 24.3052 17.7784 24.543 16.7323 24.6371L16.6847 24.9325C16.7732 24.9447 16.886 24.9557 17.0364 24.9657C16.6493 25.0188 16.1484 25.0443 15.8742 25.0443C15.5989 25.0443 15.099 25.0188 14.7109 24.9657C14.8602 24.9557 14.9729 24.9447 15.0614 24.9325L15.0138 24.6371C13.9678 24.543 13.1539 24.3052 12.5159 24.012V24.8396L11.6489 25.1958C12.2914 25.53 13.0301 25.8022 13.8837 26.0223L13.782 26.3686C14.2708 26.5125 15.0525 26.6585 15.872 26.6585C16.6914 26.6585 17.4721 26.5114 17.9619 26.3686L17.8613 26.0223C18.7139 25.8022 19.4547 25.53 20.0972 25.1958L19.2303 24.8396ZM12.1122 25.2146L12.6972 24.9789V24.3052C13.0731 24.4501 13.5664 24.6006 14.2741 24.7477L13.9423 25.8287C13.2203 25.6627 12.6065 25.4392 12.1122 25.2146ZM15.873 26.4605C15.2129 26.4605 14.5682 26.362 14.0175 26.2259L14.3681 25.0918C14.6003 25.1461 15.1819 25.2168 15.873 25.2168C16.5653 25.2168 17.1436 25.1449 17.377 25.0918L17.7286 26.2259C17.1757 26.362 16.5321 26.4605 15.873 26.4605ZM17.8049 25.8287L17.4732 24.7477C18.1809 24.6017 18.674 24.4501 19.05 24.3052V24.9789L19.6339 25.2146C19.1396 25.4392 18.5281 25.6627 17.8049 25.8287Z" fill="#13141B"/>
<path fill-rule="evenodd" clip-rule="evenodd" d="M5.80956 14.1317C5.80956 14.1317 6.15015 14.7602 6.34807 14.9017C6.95183 14.2966 7.39634 13.4203 8.37498 12.9169C7.91164 12.1535 7.29022 12.2818 7.24375 11.6025C7.54121 11.6865 7.82874 11.4896 7.83537 11.1345C7.52353 10.9629 7.41297 11.3037 7.32891 11.2163C7.25927 11.1444 7.68497 11.1322 7.64519 10.6908C7.23381 10.6775 7.30899 10.9762 7.2128 10.9386C7.13537 10.911 7.32891 10.6654 6.95627 10.4485C6.74726 10.8357 7.03364 10.9574 6.97394 11.0216C6.91095 11.0891 6.80258 10.7981 6.44646 10.9198C6.5427 11.3989 7.00379 11.2141 6.9419 11.3557C6.89767 11.4575 6.58358 11.1588 6.45974 11.5272C6.6367 11.8503 6.95518 11.774 7.14201 11.6389C7.18185 12.2596 7.58768 12.3117 8.04213 12.7432C6.83133 12.2397 5.3595 12.8583 4.80327 12.939C4.88843 13.1304 5.0565 13.3384 5.27434 13.4136C4.93156 13.7301 4.92267 13.9049 4.69824 14.1339C4.69824 14.1339 5.15604 14.6374 5.80956 14.1317ZM5.12394 14.0365C5.28208 13.7954 5.50437 13.5774 5.81175 13.3218C5.61048 13.2964 5.45234 13.23 5.25552 13.084C5.67682 12.9722 6.56147 12.6524 7.31563 12.7962C7.56332 12.8294 7.7027 12.9301 7.61199 12.9877C7.20726 13.2565 6.70633 13.8794 6.34253 14.6064C6.02405 14.2091 6.15898 13.6891 6.22423 13.5398C5.58837 13.9226 5.42249 14.1096 5.12394 14.0365Z" fill="#13141B"/>
<path fill-rule="evenodd" clip-rule="evenodd" d="M15.3438 13.6704V14.0344C15.4687 13.8828 15.712 13.9127 15.712 13.9127V14.4383C15.712 14.4383 15.7032 14.6971 15.6125 14.8078H15.8746H16.1367C16.0448 14.6971 16.0371 14.4383 16.0371 14.4383V13.9138C16.0371 13.9138 16.2793 13.8839 16.4042 14.0355V13.6715H15.8746H15.3438V13.6704Z" fill="#13141B"/>
</g>
<rect x="0.5" y="0.910156" width="31" height="31" rx="15.5" stroke="#263B3A"/>
<defs>
<clipPath id="clip0_29_3032">
<rect width="23.8218" height="22.1202" fill="white" transform="translate(4.08887 5.3501)"/>
</clipPath>
</defs>
</svg>
