<svg width="32" height="33" viewBox="0 0 32 33" fill="none" xmlns="http://www.w3.org/2000/svg">
<rect x="0.363636" y="0.773793" width="31.2727" height="31.2727" rx="15.6364" fill="white"/>
<path d="M3.9502 16.4102C3.9502 9.75522 9.34488 4.36035 16 4.36035C22.6545 4.36035 28.0498 9.75522 28.0498 16.4102C28.0498 23.0651 22.6545 28.4599 16 28.4599C9.34488 28.4599 3.9502 23.0651 3.9502 16.4102Z" fill="#FF0000"/>
<path d="M17.7019 23.6472H20.219V9.1875H16.5575C12.8752 9.1875 10.9401 11.0808 10.9401 13.8687C10.9401 16.0949 12.0011 17.4056 13.8946 18.7579L10.6074 23.6472H13.3329L16.9943 18.1754L15.725 17.3224C14.1856 16.2821 13.437 15.4707 13.437 13.7231C13.437 12.1835 14.5188 11.1432 16.5784 11.1432H17.7019V23.6472Z" fill="white"/>
<rect x="0.363636" y="0.773793" width="31.2727" height="31.2727" rx="15.6364" stroke="#263B3A" stroke-width="0.727273"/>
</svg>
